<svg id="Bayard_Logo" data-name="Bayard Logo" xmlns="http://www.w3.org/2000/svg" width="169.895" height="50.562" viewBox="0 0 169.895 50.562">
  <path id="Path_2" data-name="Path 2" d="M78.994,30.09c0,7.9-5.659,13.028-12.387,13.028-3.364,0-6.995-1.442-8.65-4.271v3.737H52.725V4.141h5.232V21.333c1.655-2.83,5.126-4.218,8.65-4.218C73.388,17.115,78.994,22.134,78.994,30.09Zm-5.286-.053a7.635,7.635,0,0,0-7.742-7.956,7.893,7.893,0,0,0-7.956,7.956,7.853,7.853,0,1,0,15.7,0Z" transform="translate(-52.725 -4.141)"/>
  <path id="Path_3" data-name="Path 3" d="M187.643,50.374V75.308H182.41V71.571c-1.655,2.83-5.232,4.271-8.6,4.271-6.781,0-12.387-5.126-12.387-13.028,0-7.955,5.606-12.974,12.334-12.974,3.524,0,6.994,1.388,8.649,4.218V50.374Zm-5.286,12.387a7.893,7.893,0,0,0-7.956-7.956,7.666,7.666,0,0,0-7.742,7.956,7.853,7.853,0,1,0,15.7,0Z" transform="translate(-130.566 -36.866)"/>
  <path id="Path_4" data-name="Path 4" d="M295.755,51.721,280.272,88.775h-5.553l5.339-13.188-9.931-23.866h5.66l7.155,17.353L290.1,51.721Z" transform="translate(-208.406 -38.213)"/>
  <path id="Path_5" data-name="Path 5" d="M396.771,50.374V75.308h-5.233V71.571c-1.655,2.83-5.232,4.271-8.6,4.271-6.781,0-12.387-5.126-12.387-13.028,0-7.955,5.606-12.974,12.334-12.974,3.524,0,6.994,1.388,8.649,4.218V50.374Zm-5.286,12.387a7.893,7.893,0,0,0-7.956-7.956,7.666,7.666,0,0,0-7.742,7.956,7.853,7.853,0,1,0,15.7,0Z" transform="translate(-280.322 -36.866)"/>
  <path id="Path_6" data-name="Path 6" d="M506.9,50.748,506,55.713a8.85,8.85,0,0,0-3.684-.854c-4.538,0-6.674,4.752-6.674,11.479v8.97h-5.286V50.374h5.286V55.98c1.282-4.378,3.791-6.14,6.994-6.14A9.6,9.6,0,0,1,506.9,50.748Z" transform="translate(-366.107 -36.866)"/>
  <path id="Path_7" data-name="Path 7" d="M585.022,4.141V42.583h-5.233V38.846c-1.655,2.83-5.232,4.271-8.6,4.271-6.781,0-12.387-5.126-12.387-13.028,0-7.955,5.606-12.974,12.334-12.974,3.524,0,6.994,1.388,8.649,4.218V4.141Zm-5.286,25.9a7.893,7.893,0,0,0-7.956-7.956,7.666,7.666,0,0,0-7.742,7.956,7.853,7.853,0,1,0,15.7,0Z" transform="translate(-415.127 -4.141)"/>
</svg>
